{"glyphs":{":":{"x_min":0,"x_max":367,"ha":367,"o":"m 329 390 q 329 352 301 323 q 272 295 233 295 q 193 295 165 323 q 136 351 136 390 q 136 429 165 458 q 193 486 233 486 q 272 486 301 458 q 329 429 329 390 z m 261 81 q 261 42 232 14 q 204 -14 165 -14 q 125 -14 96 14 q 68 42 68 81 q 68 120 96 149 q 125 177 165 177 q 204 177 232 148 q 261 120 261 81 z"},"$":{"x_min":0,"x_max":641,"ha":641,"o":"m 331 398 l 375 597 q 304 591 267 562 q 230 532 230 488 q 230 450 255 427 q 280 404 331 398 z m 457 152 q 457 195 428 219 q 399 244 346 250 l 298 32 q 376 39 417 70 q 457 102 457 152 z m 250 32 l 299 254 q 209 266 157 307 q 105 349 105 416 q 105 453 120 488 q 135 523 171 557 q 204 588 259 611 q 314 633 383 638 l 407 744 l 456 744 l 432 638 q 526 633 576 598 q 626 562 626 503 q 626 469 606 446 q 585 423 551 423 q 514 423 493 444 q 472 465 472 498 q 472 522 479 544 q 487 566 492 580 q 479 586 462 591 q 445 596 423 597 l 378 394 q 477 378 529 336 q 582 293 582 224 q 582 169 558 127 q 533 85 494 58 q 452 28 399 11 q 346 -5 290 -9 l 259 -146 l 211 -146 l 241 -9 q 142 -6 83 38 q 24 83 24 144 q 24 179 44 202 q 64 226 103 226 q 141 226 163 204 q 186 183 186 148 q 186 124 177 99 q 169 75 164 61 q 188 46 209 39 q 230 32 250 32 z"},"?":{"x_min":0,"x_max":548,"ha":548,"o":"m 292 76 q 292 39 263 12 q 235 -14 198 -14 q 160 -14 132 12 q 104 39 104 76 q 104 113 132 140 q 160 167 198 167 q 235 167 263 140 q 292 113 292 76 z m 352 709 q 442 709 502 661 q 562 614 562 534 q 562 425 479 356 q 395 287 256 277 l 242 211 l 200 211 l 237 401 q 323 407 375 449 q 427 491 427 568 q 427 616 402 642 q 377 667 332 667 q 313 667 296 662 q 279 657 263 646 q 268 631 273 609 q 278 588 278 569 q 278 535 255 514 q 232 494 194 494 q 159 494 137 515 q 116 536 116 568 q 116 627 185 668 q 254 709 352 709 z"},"<":{"x_min":0,"x_max":703,"ha":703,"o":"m 601 3 l 113 247 l 113 315 l 601 559 l 601 467 l 217 281 l 601 95 z"},"'":{"x_min":0,"x_max":269,"ha":269,"o":"m 282 595 q 263 558 237 509 q 212 461 187 402 l 154 402 q 154 492 151 548 q 149 604 149 642 q 149 685 176 716 q 203 747 246 747 q 278 747 297 729 q 316 712 316 687 q 316 672 308 651 q 300 629 282 595 z"},"=":{"x_min":0,"x_max":703,"ha":703,"o":"m 624 342 l 101 342 l 101 421 l 624 421 z m 624 140 l 101 140 l 101 219 l 624 219 z"},"a":{"x_min":0,"x_max":660,"ha":660,"o":"m 371 61 l 367 61 q 350 46 335 34 q 319 22 296 10 q 275 -1 253 -8 q 230 -15 203 -15 q 118 -15 75 35 q 32 85 32 172 q 32 239 56 297 q 80 356 120 400 q 160 444 214 470 q 269 496 329 496 q 373 496 406 485 q 438 475 459 458 l 609 488 l 616 480 l 544 180 q 541 165 536 142 q 532 120 532 108 q 532 80 544 70 q 557 59 588 59 q 602 59 621 64 q 641 70 648 73 l 638 29 q 589 10 560 0 q 531 -10 493 -10 q 443 -10 413 10 q 383 30 371 61 z m 429 371 q 429 381 426 396 q 423 411 416 421 q 407 434 393 440 q 379 447 358 447 q 326 447 299 424 q 271 400 250 362 q 230 324 218 273 q 207 223 207 170 q 207 146 210 125 q 214 105 222 91 q 231 76 246 67 q 261 59 283 59 q 306 59 327 73 q 349 86 367 105 z"},"L":{"x_min":0,"x_max":686,"ha":686,"o":"m 676 222 l 611 0 l -27 0 l -19 36 q -6 36 18 39 q 42 42 54 46 q 73 53 83 65 q 93 78 97 95 l 208 580 q 211 590 212 597 q 213 604 213 607 q 213 627 192 639 q 171 650 125 657 l 133 693 l 514 693 l 505 657 q 490 656 465 653 q 441 649 428 645 q 408 639 398 625 q 389 611 385 595 l 279 135 q 276 121 274 107 q 272 94 272 86 q 272 58 293 50 q 313 42 377 42 q 417 42 455 48 q 494 54 513 69 q 543 94 580 139 q 617 185 641 222 z"},"3":{"x_min":0,"x_max":625,"ha":625,"o":"m 375 542 q 444 542 488 527 q 532 513 556 492 q 581 471 590 445 q 600 420 600 397 q 600 373 588 344 q 577 315 552 290 q 527 264 486 243 q 445 221 386 209 l 384 202 q 416 201 446 192 q 476 184 498 169 q 521 153 537 126 q 552 100 552 62 q 552 9 524 -37 q 496 -82 447 -114 q 395 -147 336 -164 q 277 -180 201 -180 q 102 -180 41 -138 q -20 -96 -20 -34 q -20 0 3 24 q 25 48 62 48 q 101 48 124 26 q 148 4 148 -30 q 148 -55 140 -80 q 132 -104 126 -119 q 137 -125 153 -130 q 168 -135 190 -135 q 223 -135 254 -122 q 286 -108 310 -82 q 336 -53 351 -16 q 365 21 365 81 q 365 119 345 145 q 325 170 268 170 l 206 170 l 219 227 l 263 227 q 334 227 376 276 q 419 324 419 410 q 419 449 398 472 q 378 496 333 496 q 312 496 288 489 q 264 483 249 475 q 254 458 261 433 q 269 409 269 388 q 269 353 246 331 q 223 310 184 310 q 147 310 126 333 q 104 357 104 392 q 104 448 182 495 q 261 542 375 542 z"},";":{"x_min":0,"x_max":367,"ha":367,"o":"m 264 64 q 264 -11 202 -82 q 140 -152 51 -190 l 36 -155 q 65 -141 86 -128 q 107 -116 130 -94 q 150 -75 165 -52 q 180 -30 188 0 l 159 0 q 113 0 92 18 q 70 36 70 68 q 70 106 101 136 q 131 166 171 166 q 219 166 242 138 q 264 109 264 64 z m 329 390 q 329 352 301 323 q 272 295 233 295 q 193 295 165 323 q 136 351 136 390 q 136 429 165 458 q 193 486 233 486 q 272 486 301 458 q 329 429 329 390 z"},"J":{"x_min":0,"x_max":595,"ha":595,"o":"m 462 211 q 449 155 420 112 q 390 68 352 40 q 313 12 269 -3 q 224 -19 178 -19 q 86 -19 31 25 q -23 68 -23 144 q -23 190 4 220 q 31 251 76 251 q 119 251 143 226 q 167 202 167 165 q 167 145 158 126 q 148 108 125 86 l 95 58 l 95 51 q 99 40 114 33 q 128 27 144 27 q 194 27 230 70 q 266 113 285 197 l 374 580 q 376 590 377 597 q 378 604 378 607 q 378 627 357 639 q 335 650 289 657 l 297 693 l 671 693 l 663 657 q 647 656 627 652 q 606 648 594 645 q 573 639 564 626 q 556 614 551 595 z"},"V":{"x_min":0,"x_max":762,"ha":762,"o":"m 873 657 q 857 656 842 651 q 826 646 808 637 q 784 625 770 611 q 755 597 738 572 q 712 535 675 478 q 638 420 576 325 q 512 227 461 148 q 410 69 361 -8 l 263 -8 q 225 208 198 355 q 172 501 158 575 q 152 602 143 614 q 134 626 117 638 q 103 646 91 651 q 79 655 60 657 l 68 693 l 436 693 l 427 657 q 387 653 367 648 q 348 644 338 639 q 330 634 329 628 q 328 623 328 618 q 328 607 330 596 q 332 585 334 565 q 344 508 362 410 q 381 312 407 158 q 472 260 526 347 q 581 435 631 516 q 652 550 667 580 q 683 609 683 620 q 683 635 657 645 q 632 654 585 657 l 594 693 l 881 693 z"},"\"":{"x_min":0,"x_max":510,"ha":510,"o":"m 287 595 q 268 558 242 509 q 217 461 191 402 l 159 402 q 159 492 156 548 q 154 604 154 642 q 154 685 181 716 q 208 747 251 747 q 283 747 302 729 q 321 712 321 687 q 321 672 312 651 q 304 629 287 595 z m 518 595 q 499 558 473 509 q 448 461 422 402 l 390 402 q 390 492 387 548 q 385 604 385 642 q 385 685 412 716 q 439 747 482 747 q 514 747 533 729 q 552 712 552 687 q 552 672 544 651 q 536 629 518 595 z"},"7":{"x_min":0,"x_max":566,"ha":566,"o":"m 615 463 l 116 -180 l 33 -180 l 495 395 l 273 395 q 234 395 208 394 q 182 393 161 384 q 146 377 129 353 q 112 329 94 285 l 59 285 l 114 526 l 629 526 z"},"S":{"x_min":0,"x_max":653,"ha":653,"o":"m 281 -19 q 223 -19 165 -4 q 106 10 62 34 l 21 0 l -21 0 l 31 250 l 73 250 q 79 214 94 175 q 110 135 135 104 q 159 73 197 52 q 234 31 283 31 q 354 31 396 65 q 438 100 438 156 q 438 192 414 219 q 390 247 336 266 q 302 278 270 290 q 238 301 209 313 q 152 337 124 382 q 95 426 95 476 q 95 521 116 564 q 137 606 176 639 q 215 672 272 692 q 329 711 396 711 q 453 711 509 695 q 564 679 591 664 l 627 693 l 670 693 l 619 457 l 577 457 q 571 498 559 535 q 547 571 526 601 q 505 629 475 646 q 444 663 401 663 q 342 663 302 629 q 262 596 262 546 q 262 511 286 484 q 310 458 362 438 q 392 427 425 415 q 458 403 489 391 q 545 367 578 327 q 611 287 611 231 q 611 179 587 133 q 563 87 520 54 q 475 19 414 0 q 354 -19 281 -19 z"},"}":{"x_min":0,"x_max":500,"ha":500,"o":"m 477 325 l 460 252 q 418 249 393 245 q 367 241 339 228 q 314 215 299 194 q 284 172 277 137 q 271 108 270 81 q 268 54 262 22 q 253 -36 227 -73 q 200 -110 157 -130 q 114 -150 61 -157 q 8 -163 -60 -163 l -52 -123 q -29 -121 -5 -117 q 18 -113 37 -102 q 56 -91 71 -69 q 86 -47 92 -9 l 109 84 q 118 137 141 170 q 164 203 195 225 q 225 245 263 256 q 302 268 337 275 l 346 312 q 316 318 291 329 q 267 339 249 355 q 229 372 219 395 q 209 418 209 450 q 209 465 211 478 q 212 490 215 503 l 234 596 q 236 603 236 611 q 237 618 237 625 q 237 652 227 668 q 217 685 201 693 q 187 701 165 705 q 144 708 125 709 l 132 750 q 192 750 239 745 q 286 741 320 727 q 354 712 373 685 q 391 658 391 612 q 391 603 390 590 q 389 576 386 564 q 381 537 373 506 q 365 475 358 440 q 356 429 355 420 q 354 410 354 403 q 354 360 385 344 q 415 328 477 325 z"},"Z":{"x_min":0,"x_max":689,"ha":689,"o":"m 763 693 l 756 663 l 177 42 l 343 42 q 425 42 456 51 q 488 59 505 75 q 538 105 574 150 q 611 195 639 234 l 675 234 l 598 0 l -48 0 l -41 30 l 539 650 l 396 650 q 350 650 329 648 q 308 645 288 637 q 265 629 229 592 q 193 556 135 481 l 95 481 l 166 693 z"},"x":{"x_min":0,"x_max":583,"ha":583,"o":"m 595 423 q 595 380 568 355 q 541 330 501 330 q 478 330 455 336 q 433 342 416 348 q 408 342 393 324 q 378 306 359 280 q 376 206 387 174 q 398 143 408 110 q 416 84 432 70 q 448 55 483 55 q 496 55 515 60 q 534 65 546 70 l 535 26 q 487 5 451 -4 q 415 -13 386 -13 q 366 -13 346 -9 q 326 -5 309 5 q 291 16 279 32 q 266 48 257 77 q 251 95 247 118 q 242 141 237 158 q 223 137 216 127 q 210 117 198 98 q 159 39 131 14 q 103 -11 63 -11 q 33 -11 12 9 q -9 29 -9 61 q -9 104 18 130 q 45 155 84 155 q 108 155 129 149 q 151 144 170 137 q 177 143 193 160 q 208 177 226 202 q 210 268 200 301 q 189 334 179 367 q 170 393 153 407 q 137 422 104 422 q 89 422 71 417 q 53 412 41 407 l 51 451 q 95 471 135 480 q 174 490 200 490 q 224 490 241 487 q 258 483 277 472 q 295 461 308 445 q 321 429 329 400 q 335 381 340 360 q 345 339 348 324 q 358 339 369 356 q 380 373 388 385 q 426 444 456 470 q 485 496 523 496 q 554 496 574 475 q 595 455 595 423 z"},")":{"x_min":0,"x_max":447,"ha":447,"o":"m 134 748 q 188 741 239 718 q 290 695 330 654 q 369 613 392 555 q 415 497 415 419 q 415 297 373 191 q 332 85 257 7 q 188 -64 103 -107 q 17 -150 -61 -160 l -51 -116 q 10 -105 69 -52 q 127 2 170 88 q 211 169 234 270 q 257 372 257 473 q 257 569 225 631 q 193 692 125 705 z"},"&":{"x_min":0,"x_max":799,"ha":799,"o":"m 746 0 l 460 0 q 450 16 438 32 q 427 49 414 72 q 346 20 296 1 q 246 -17 188 -17 q 106 -17 57 24 q 7 65 7 133 q 7 176 22 211 q 37 246 67 277 q 95 306 139 330 q 183 355 234 375 q 209 417 198 449 q 187 482 187 511 q 187 598 255 655 q 323 711 419 711 q 489 711 531 682 q 574 652 574 599 q 574 542 533 495 q 491 448 403 403 q 439 339 466 296 q 494 253 521 209 q 565 255 594 303 q 623 352 623 368 q 623 380 602 389 q 582 397 546 404 l 554 439 l 827 439 l 819 404 q 772 400 751 393 q 729 385 706 366 q 692 355 674 332 q 656 310 639 289 q 623 268 594 233 q 566 199 542 175 q 578 121 598 98 q 619 74 635 64 q 654 53 688 46 q 723 39 754 37 z m 496 595 q 496 627 478 646 q 460 665 430 665 q 395 665 367 640 q 340 615 340 572 q 340 544 351 513 q 363 483 387 436 q 440 467 468 510 q 496 554 496 595 z m 395 104 q 362 157 319 228 q 275 299 250 343 q 209 311 190 271 q 170 230 170 188 q 170 136 203 102 q 236 69 291 69 q 321 69 343 76 q 364 83 395 104 z"},"_":{"x_min":0,"x_max":703,"ha":703,"o":"m 616 -147 l -92 -147 l -79 -88 l 629 -88 z"},"v":{"x_min":0,"x_max":612,"ha":612,"o":"m 590 374 q 590 305 567 234 q 544 164 502 109 q 452 45 392 15 q 331 -16 266 -16 q 179 -16 127 25 q 76 65 76 141 q 76 165 84 191 q 92 218 104 254 q 113 285 122 315 q 130 345 130 372 q 130 398 119 410 q 107 421 77 421 q 61 421 45 416 q 28 411 17 407 l 27 451 q 67 467 103 478 q 139 490 171 490 q 229 490 261 461 q 292 432 292 389 q 292 357 284 321 q 275 286 266 257 q 258 232 249 199 q 240 166 240 146 q 240 105 260 80 q 280 55 324 55 q 391 55 439 105 q 488 154 488 238 q 488 247 487 256 q 486 266 483 278 q 478 290 462 302 q 447 315 436 326 q 422 340 411 359 q 400 378 400 409 q 400 435 410 451 q 420 467 435 478 q 446 486 463 491 q 479 496 493 496 q 539 496 564 463 q 590 431 590 374 z"},"O":{"x_min":0,"x_max":820,"ha":820,"o":"m 811 427 q 811 339 778 258 q 745 176 686 115 q 625 53 542 17 q 459 -19 355 -19 q 218 -19 130 60 q 42 139 42 266 q 42 359 78 441 q 114 522 177 583 q 238 644 321 678 q 404 712 496 712 q 633 712 722 635 q 811 558 811 427 z m 556 171 q 589 239 605 318 q 621 397 621 475 q 621 564 587 615 q 553 667 485 667 q 425 667 378 626 q 331 586 299 522 q 267 458 250 378 q 232 297 232 218 q 232 131 267 79 q 301 26 369 26 q 428 26 476 67 q 524 108 556 171 z"},"(":{"x_min":0,"x_max":447,"ha":447,"o":"m 326 -160 q 271 -153 221 -130 q 170 -107 130 -66 q 91 -25 68 33 q 45 91 45 169 q 45 291 87 397 q 128 503 203 581 q 271 653 357 695 q 443 738 521 748 l 511 704 q 450 693 391 640 q 333 586 290 500 q 249 418 226 317 q 203 216 203 115 q 203 19 235 -43 q 267 -104 335 -117 z"},"C":{"x_min":0,"x_max":715,"ha":715,"o":"m 352 -19 q 285 -19 228 1 q 171 21 129 58 q 88 95 65 149 q 42 202 42 270 q 42 359 75 438 q 108 517 168 579 q 226 639 309 675 q 393 711 486 711 q 543 711 601 698 q 659 684 688 666 l 725 693 l 767 693 l 713 440 l 670 440 q 660 551 611 609 q 562 667 485 667 q 428 667 380 633 q 333 599 295 529 q 265 472 249 396 q 233 320 233 253 q 233 156 281 102 q 328 47 408 47 q 478 47 537 86 q 597 125 652 199 l 689 174 q 666 137 632 101 q 599 65 557 39 q 512 11 465 -4 q 418 -19 352 -19 z"},"W":{"x_min":0,"x_max":1126,"ha":1126,"o":"m 1245 693 l 1236 657 q 1220 656 1204 650 q 1188 644 1172 637 q 1149 625 1136 611 q 1123 596 1108 572 q 1060 491 968 331 q 875 171 772 -8 l 671 -8 l 608 504 l 327 -8 l 229 -8 q 209 175 192 336 q 174 498 166 574 q 162 600 155 613 q 147 625 128 638 q 117 646 103 651 q 89 655 71 657 l 80 693 l 442 693 l 433 657 q 398 653 378 649 q 359 645 349 639 q 340 634 339 628 q 337 622 337 616 q 337 606 338 593 q 339 580 341 565 q 345 519 355 420 q 366 320 379 188 l 652 693 l 756 693 l 819 172 q 877 277 927 368 q 977 459 1006 516 q 1024 551 1037 581 q 1051 610 1051 619 q 1051 634 1025 644 q 1000 654 950 657 l 959 693 z"},"A":{"x_min":0,"x_max":758,"ha":758,"o":"m 436 279 l 393 531 l 235 279 z m 357 0 l 366 36 q 416 40 444 48 q 472 57 472 67 q 472 76 471 82 q 470 88 469 97 l 444 233 l 206 233 q 194 215 176 185 q 158 156 146 135 q 127 102 124 89 q 121 77 121 74 q 121 59 144 50 q 167 40 214 36 l 206 0 l -85 0 l -77 36 q -62 37 -41 41 q -20 44 -5 52 q 16 63 34 80 q 52 97 67 122 q 167 274 250 403 q 333 532 442 703 l 539 703 q 576 484 601 341 q 625 198 644 102 q 646 87 654 75 q 661 63 676 52 q 688 44 705 41 q 722 37 736 36 l 728 0 z"},"f":{"x_min":0,"x_max":381,"ha":381,"o":"m 303 424 q 278 303 260 215 q 243 126 218 29 q 206 -18 177 -64 q 149 -109 111 -143 q 71 -178 25 -197 q -22 -217 -71 -217 q -116 -217 -143 -208 q -171 -199 -187 -186 q -202 -172 -207 -155 q -212 -139 -212 -123 q -212 -94 -192 -73 q -172 -51 -138 -51 q -111 -51 -92 -65 q -73 -79 -59 -98 q -45 -117 -35 -141 q -24 -164 -19 -177 q 2 -155 20 -110 q 38 -64 54 11 l 141 424 l 46 424 l 58 474 l 152 474 l 160 512 q 170 558 198 602 q 225 646 263 681 q 300 715 349 736 q 397 758 446 758 q 489 758 517 750 q 545 742 561 728 q 576 714 581 698 q 586 682 586 666 q 586 655 582 642 q 578 628 569 618 q 558 605 546 599 q 534 592 511 592 q 485 592 466 606 q 447 620 434 639 q 419 659 410 682 q 400 705 394 718 q 374 695 357 651 q 341 607 324 530 l 312 474 l 436 474 l 424 424 z"},"Q":{"x_min":0,"x_max":820,"ha":820,"o":"m 811 427 q 811 355 789 287 q 767 219 726 164 q 685 108 627 66 q 569 23 497 2 l 497 -24 q 497 -77 522 -108 q 548 -139 590 -139 q 612 -139 638 -136 q 664 -132 682 -128 l 674 -167 q 640 -181 581 -192 q 521 -203 471 -203 q 399 -203 357 -163 q 315 -123 315 -44 l 315 -17 q 194 -3 118 71 q 42 145 42 266 q 42 359 78 441 q 114 522 177 583 q 238 644 321 678 q 404 712 496 712 q 633 712 722 635 q 811 558 811 427 z m 621 475 q 621 564 587 615 q 553 667 485 667 q 425 667 378 626 q 331 586 299 522 q 267 458 250 378 q 232 297 232 218 q 232 131 267 79 q 301 26 369 26 q 428 26 476 67 q 524 108 556 171 q 589 239 605 318 q 621 397 621 475 z"},"w":{"x_min":0,"x_max":934,"ha":934,"o":"m 912 374 q 912 303 888 233 q 865 163 823 109 q 779 53 719 19 q 659 -16 582 -16 q 511 -16 467 12 q 422 40 406 92 q 354 35 304 10 q 253 -14 193 -14 q 137 -14 104 21 q 71 56 71 109 q 71 129 75 146 q 79 164 84 184 l 118 300 q 121 313 126 337 q 130 361 130 372 q 130 398 119 409 q 108 421 77 421 q 61 421 45 416 q 28 411 17 407 l 27 451 q 67 467 103 478 q 139 490 171 490 q 229 490 261 461 q 292 432 292 387 q 292 371 288 341 q 283 311 277 292 l 249 198 q 244 183 240 160 q 236 137 236 127 q 236 100 252 84 q 267 68 288 68 q 294 68 306 70 q 318 71 332 78 q 345 84 365 98 q 385 112 403 133 q 403 142 406 158 q 408 175 412 199 l 477 481 l 632 488 l 638 481 l 574 202 q 572 196 570 177 q 567 158 567 138 q 567 96 587 76 q 607 56 647 56 q 713 56 761 106 q 810 155 810 238 q 810 247 809 256 q 808 266 805 278 q 799 290 785 301 q 770 313 757 325 q 743 339 732 360 q 722 380 722 409 q 722 434 731 450 q 741 467 756 478 q 767 486 784 491 q 801 496 814 496 q 861 496 886 462 q 912 429 912 374 z"},"-":{"x_min":0,"x_max":379,"ha":379,"o":"m 328 212 l 32 212 l 56 319 l 352 319 z"},"E":{"x_min":0,"x_max":721,"ha":721,"o":"m 742 693 l 702 516 l 665 516 q 658 562 632 601 q 605 640 577 646 q 563 650 537 651 q 511 651 494 651 l 398 651 l 336 380 l 402 380 q 439 380 460 388 q 480 396 499 411 q 512 422 531 451 q 549 480 557 501 l 594 501 l 527 212 l 490 212 l 490 230 q 490 252 485 275 q 480 298 474 308 q 461 326 440 332 q 419 338 393 338 l 326 338 l 282 146 q 278 131 275 114 q 272 97 272 89 q 272 58 293 50 q 313 42 369 42 q 439 42 471 48 q 503 54 520 67 q 549 91 590 142 q 631 192 646 216 l 681 216 l 618 0 l -27 0 l -19 36 q -6 36 18 39 q 42 42 54 45 q 73 52 83 65 q 93 78 97 95 l 208 580 q 211 590 212 597 q 213 604 213 607 q 213 627 192 639 q 171 650 125 657 l 133 693 z"},"s":{"x_min":0,"x_max":517,"ha":517,"o":"m 212 -16 q 151 -16 111 -6 q 70 4 47 20 q 23 35 14 53 q 5 71 5 86 q 5 115 27 136 q 48 157 83 157 q 112 157 132 142 q 152 127 165 104 q 177 83 186 58 q 194 32 197 20 q 252 20 281 44 q 309 67 309 108 q 309 126 301 139 q 292 151 278 160 q 264 169 242 177 q 220 186 198 193 q 139 213 105 248 q 70 284 70 336 q 70 368 85 395 q 99 423 130 446 q 160 469 207 482 q 253 496 315 496 q 352 496 384 491 q 416 487 443 475 q 469 463 483 445 q 498 426 498 399 q 498 372 477 353 q 457 333 424 333 q 396 333 377 348 q 358 363 347 383 q 335 403 328 425 q 321 447 317 461 q 283 459 255 437 q 227 414 227 380 q 227 360 233 348 q 240 336 251 329 q 264 320 283 312 q 302 305 331 295 q 397 271 431 239 q 465 206 465 152 q 465 117 448 85 q 432 53 402 31 q 368 8 324 -4 q 280 -16 212 -16 z"},">":{"x_min":0,"x_max":703,"ha":703,"o":"m 612 247 l 124 3 l 124 95 l 507 281 l 124 467 l 124 559 l 612 315 z"},"l":{"x_min":0,"x_max":354,"ha":354,"o":"m 364 748 l 233 177 q 229 163 225 139 q 220 116 220 104 q 220 76 234 66 q 249 56 281 56 q 293 56 314 61 q 335 66 344 70 l 333 26 q 285 7 254 -3 q 224 -13 185 -13 q 126 -13 92 15 q 59 44 59 88 q 59 106 62 125 q 65 145 69 163 l 174 622 q 176 630 177 637 q 178 645 178 649 q 178 667 172 677 q 167 688 155 694 q 143 700 128 703 q 113 705 93 707 l 102 743 l 359 756 z"},"8":{"x_min":0,"x_max":676,"ha":676,"o":"m 666 564 q 666 500 618 455 q 570 410 485 386 q 561 356 597 314 q 634 272 634 221 q 634 120 538 51 q 441 -18 291 -18 q 178 -18 110 27 q 43 71 43 144 q 43 214 92 264 q 142 313 243 336 q 183 365 157 408 q 131 450 131 497 q 131 542 155 582 q 179 622 223 652 q 263 680 322 696 q 381 713 441 713 q 544 713 605 671 q 666 628 666 564 z m 504 573 q 504 616 483 644 q 463 672 424 672 q 373 672 337 634 q 301 595 301 542 q 301 517 313 498 q 325 479 345 465 q 361 453 394 435 q 426 418 453 403 q 474 436 489 483 q 504 531 504 573 z m 461 165 q 461 193 447 213 q 432 233 407 249 q 381 266 345 283 q 309 300 274 319 q 251 295 229 246 q 207 197 207 143 q 207 87 236 55 q 265 23 313 23 q 380 23 421 65 q 461 107 461 165 z"},"\\":{"x_min":0,"x_max":472,"ha":472,"o":"m 380 -207 l 295 -207 l 125 744 l 210 744 z"},"e":{"x_min":0,"x_max":557,"ha":557,"o":"m 267 -16 q 208 -16 164 0 q 120 16 91 44 q 62 72 48 110 q 34 147 34 193 q 34 250 56 305 q 77 359 120 402 q 160 444 221 470 q 283 496 357 496 q 444 496 490 468 q 536 440 536 384 q 536 331 496 293 q 457 254 389 236 q 335 220 297 213 q 259 206 205 200 q 206 179 210 152 q 215 125 225 106 q 237 84 258 71 q 280 58 313 58 q 371 58 411 80 q 451 103 488 151 l 523 121 q 479 59 411 21 q 342 -16 267 -16 z m 377 371 q 377 412 362 434 q 347 457 320 457 q 282 457 249 395 q 215 334 206 240 q 235 244 263 249 q 292 254 308 262 q 345 278 361 303 q 377 329 377 371 z"},"b":{"x_min":0,"x_max":649,"ha":649,"o":"m 617 309 q 617 242 595 182 q 572 123 530 80 q 486 34 425 9 q 364 -16 289 -16 q 271 -16 236 -12 q 201 -8 173 2 q 138 14 107 37 q 76 59 52 95 l 175 622 q 177 630 178 637 q 179 645 179 649 q 179 666 173 676 q 167 687 155 693 q 144 699 129 702 q 113 705 93 707 l 102 743 l 359 756 l 365 748 l 291 432 l 294 432 q 306 441 319 450 q 332 460 354 472 q 371 480 398 488 q 425 496 447 496 q 532 496 574 446 q 617 396 617 309 z m 442 311 q 442 334 439 355 q 436 375 427 390 q 418 405 403 413 q 388 421 366 421 q 341 421 318 407 q 296 394 278 375 l 217 103 q 217 91 220 79 q 224 66 233 53 q 243 40 255 32 q 267 25 289 25 q 322 25 351 50 q 380 74 399 114 q 421 157 432 205 q 442 252 442 311 z"},"%":{"x_min":0,"x_max":879,"ha":879,"o":"m 481 559 q 481 471 416 409 q 350 348 257 348 q 185 348 138 390 q 92 433 92 501 q 92 590 158 652 q 224 713 315 713 q 389 713 435 670 q 481 628 481 559 z m 356 595 q 356 635 346 657 q 335 678 309 678 q 268 678 242 616 q 216 554 216 462 q 216 424 228 403 q 239 382 265 382 q 304 382 330 443 q 356 504 356 595 z m 826 194 q 826 106 761 45 q 695 -17 603 -17 q 530 -17 483 25 q 437 68 437 137 q 437 226 503 287 q 569 348 661 348 q 734 348 780 306 q 826 263 826 194 z m 702 230 q 702 271 691 292 q 680 313 654 313 q 613 313 587 251 q 562 189 562 98 q 562 60 573 39 q 584 18 610 18 q 649 18 676 78 q 702 139 702 230 z m 852 697 l 143 0 l 67 0 l 775 697 z"},"m":{"x_min":0,"x_max":1002,"ha":1002,"o":"m 988 75 l 977 31 q 929 12 900 2 q 871 -8 833 -8 q 775 -8 743 21 q 710 50 710 93 q 710 104 712 123 q 713 141 720 168 l 755 298 q 760 319 763 336 q 766 353 766 364 q 766 387 754 400 q 742 414 716 414 q 697 414 669 397 q 640 380 611 353 l 530 0 l 369 0 l 437 298 q 442 322 445 337 q 448 353 448 364 q 448 387 436 400 q 424 414 397 414 q 382 414 355 401 q 329 389 288 353 l 208 0 l 46 0 l 115 300 q 118 314 123 336 q 127 359 127 373 q 127 400 117 411 q 106 421 74 421 q 59 421 42 417 q 26 412 14 407 l 25 451 q 64 467 101 479 q 137 490 169 490 q 229 490 255 466 q 281 442 292 404 l 295 404 q 344 449 390 472 q 435 496 494 496 q 544 496 577 469 q 609 442 612 402 l 616 402 q 668 447 713 471 q 758 496 815 496 q 870 496 900 466 q 931 436 931 394 q 931 382 929 362 q 928 342 921 319 l 884 182 q 879 165 875 143 q 872 121 872 109 q 872 81 884 71 q 896 61 928 61 q 942 61 961 66 q 979 71 988 75 z"},"#":{"x_min":0,"x_max":703,"ha":703,"o":"m 652 365 l 521 365 l 472 240 l 605 240 l 605 162 l 441 162 l 378 0 l 305 0 l 369 162 l 256 162 l 193 0 l 120 0 l 184 162 l 83 162 l 83 240 l 214 240 l 263 365 l 129 365 l 129 443 l 293 443 l 359 610 l 432 610 l 366 443 l 479 443 l 544 610 l 617 610 l 551 443 l 652 443 z m 449 366 l 335 366 l 286 239 l 399 239 z"},",":{"x_min":0,"x_max":328,"ha":328,"o":"m 250 64 q 250 -11 188 -82 q 125 -152 37 -190 l 21 -155 q 51 -141 72 -128 q 93 -116 116 -94 q 135 -75 150 -52 q 165 -30 173 0 l 144 0 q 99 0 77 18 q 56 36 56 68 q 56 106 86 136 q 117 166 157 166 q 205 166 227 138 q 250 109 250 64 z"},"n":{"x_min":0,"x_max":690,"ha":690,"o":"m 676 75 l 665 31 q 617 12 588 2 q 559 -8 521 -8 q 463 -8 431 21 q 398 50 398 93 q 398 104 400 123 q 401 141 408 168 l 443 298 q 448 319 451 336 q 454 353 454 364 q 454 387 442 400 q 431 414 404 414 q 388 414 357 401 q 326 388 288 353 l 208 0 l 46 0 l 115 300 q 118 314 123 336 q 127 358 127 373 q 127 400 116 411 q 104 421 74 421 q 59 421 42 417 q 26 412 14 407 l 25 451 q 64 467 101 479 q 137 490 169 490 q 227 490 255 468 q 284 445 293 404 l 296 404 q 344 447 395 471 q 446 496 504 496 q 558 496 589 466 q 619 436 619 394 q 619 382 617 362 q 616 342 609 319 l 572 182 q 567 165 563 143 q 560 121 560 109 q 560 81 572 71 q 584 61 616 61 q 630 61 649 66 q 667 71 676 75 z"},"h":{"x_min":0,"x_max":675,"ha":675,"o":"m 661 74 l 650 31 q 602 12 573 2 q 544 -8 506 -8 q 448 -8 416 21 q 383 50 383 93 q 383 106 385 123 q 386 140 393 168 l 428 298 q 434 319 436 336 q 439 353 439 364 q 439 387 428 400 q 417 414 390 414 q 373 414 342 401 q 312 388 273 353 l 193 0 l 31 0 l 175 622 q 177 630 178 637 q 179 645 179 649 q 179 667 173 677 q 167 688 155 694 q 144 700 128 703 q 113 705 93 707 l 102 743 l 359 756 l 365 748 l 287 410 l 290 410 q 335 450 384 473 q 433 496 489 496 q 543 496 574 466 q 604 436 604 394 q 604 382 603 362 q 601 342 595 319 l 558 182 q 553 165 549 143 q 545 121 545 109 q 545 81 557 70 q 570 60 601 60 q 616 60 634 65 q 653 70 661 74 z"},"z":{"x_min":0,"x_max":517,"ha":517,"o":"m 529 481 l 522 446 l 176 41 q 194 41 212 40 q 229 40 253 40 q 271 40 288 41 q 306 41 335 43 q 354 45 369 57 q 383 69 392 85 q 398 97 416 126 q 433 154 443 177 l 478 177 l 443 0 l -13 0 l -4 41 l 336 440 l 278 440 q 236 440 218 439 q 199 438 175 429 q 159 422 137 393 q 115 363 99 326 l 64 326 l 95 481 z"},"B":{"x_min":0,"x_max":759,"ha":759,"o":"m 552 558 q 552 606 522 628 q 491 651 441 651 q 432 651 418 650 q 405 649 398 649 l 337 388 l 370 388 q 454 388 503 435 q 552 481 552 558 z m 514 229 q 514 285 478 315 q 442 345 371 345 q 361 345 347 344 q 333 344 327 343 l 268 85 q 268 67 294 55 q 321 42 353 42 q 418 42 466 94 q 514 146 514 229 z m 501 693 q 626 693 685 662 q 744 631 744 567 q 744 524 725 492 q 707 460 676 438 q 645 416 605 400 q 564 385 521 376 l 520 367 q 553 364 588 353 q 623 342 648 325 q 675 307 690 281 q 706 255 706 218 q 706 111 616 55 q 527 0 352 0 l -27 0 l -19 36 q -6 36 18 39 q 42 42 54 46 q 73 53 83 65 q 93 78 97 95 l 208 580 q 211 590 212 597 q 213 604 213 607 q 213 627 192 639 q 171 650 125 657 l 133 693 z"},"K":{"x_min":0,"x_max":817,"ha":817,"o":"m 273 110 q 271 102 270 95 q 269 87 269 83 q 269 62 287 51 q 305 41 356 36 l 348 0 l -27 0 l -19 36 q -6 36 18 39 q 42 42 54 45 q 73 52 83 65 q 93 78 97 95 l 208 580 q 211 590 212 597 q 213 604 213 607 q 213 627 192 639 q 171 650 125 657 l 133 693 l 507 693 l 499 657 q 484 656 462 652 q 440 648 428 645 q 408 639 398 625 q 389 611 385 595 l 331 359 l 352 359 q 405 399 465 447 q 525 495 565 531 q 610 573 635 599 q 660 625 660 639 q 660 646 644 651 q 628 655 592 657 l 601 693 l 902 693 l 894 657 q 839 651 797 634 q 755 617 713 586 q 646 535 597 493 q 549 452 495 407 q 532 344 576 274 q 620 204 672 118 q 688 92 704 76 q 720 59 744 47 q 754 42 770 39 q 785 36 795 36 l 787 0 l 527 0 q 487 93 446 162 q 406 231 352 320 l 322 320 z"},"R":{"x_min":0,"x_max":797,"ha":797,"o":"m 560 547 q 560 600 527 625 q 494 651 432 651 l 398 651 l 331 356 l 378 356 q 458 356 509 406 q 560 457 560 547 z m 273 110 q 271 102 270 95 q 269 87 269 83 q 269 62 287 51 q 305 41 356 36 l 348 0 l -27 0 l -19 36 q -6 36 18 39 q 42 42 54 46 q 73 53 83 65 q 93 78 97 95 l 208 580 q 211 590 212 597 q 213 604 213 607 q 213 627 192 639 q 171 650 125 657 l 133 693 l 515 693 q 634 693 694 659 q 753 625 753 557 q 753 477 695 422 q 637 368 531 342 q 551 306 582 251 q 612 197 653 126 q 665 105 683 78 q 702 52 723 44 q 733 41 751 39 q 770 36 777 36 l 769 0 l 516 0 q 470 105 437 168 q 405 231 356 314 l 321 314 z"},"T":{"x_min":0,"x_max":684,"ha":684,"o":"m 777 693 l 731 495 l 693 495 q 691 511 686 536 q 680 561 670 585 q 660 611 648 627 q 636 644 620 647 q 605 649 582 650 q 560 652 543 652 l 519 652 l 394 113 q 392 105 391 97 q 390 90 390 86 q 390 75 394 66 q 399 57 412 51 q 423 46 446 42 q 468 37 483 36 l 475 0 l 88 0 l 97 36 q 110 37 137 40 q 163 42 174 46 q 194 54 204 67 q 213 81 217 99 l 345 652 l 326 652 q 308 652 289 651 q 270 649 246 647 q 229 645 207 626 q 185 607 165 585 q 140 558 124 536 q 108 514 97 495 l 60 495 l 105 693 z"},"P":{"x_min":0,"x_max":706,"ha":706,"o":"m 748 547 q 748 487 720 440 q 693 392 641 360 q 590 329 527 313 q 463 298 387 298 l 317 298 l 273 110 q 271 102 270 95 q 269 87 269 83 q 269 62 287 51 q 305 41 358 36 l 350 0 l -27 0 l -19 36 q -6 36 18 39 q 42 42 54 46 q 73 53 83 65 q 93 78 97 95 l 208 580 q 211 590 212 597 q 213 604 213 607 q 213 627 192 639 q 171 650 125 657 l 133 693 l 508 693 q 629 693 689 657 q 748 622 748 547 z m 555 546 q 555 599 526 625 q 498 651 434 651 l 398 651 l 327 342 l 359 342 q 412 342 449 358 q 487 374 511 402 q 533 429 544 466 q 555 502 555 546 z"},"|":{"x_min":0,"x_max":388,"ha":388,"o":"m 247 -207 l 163 -207 l 163 744 l 247 744 z"},"t":{"x_min":0,"x_max":417,"ha":417,"o":"m 199 -13 q 141 -13 105 16 q 70 44 70 88 q 70 106 73 123 q 75 139 81 164 l 141 424 l 52 424 l 63 474 l 155 474 l 190 622 l 348 622 l 314 474 l 446 474 l 435 424 l 303 424 l 243 164 q 240 150 237 131 q 233 111 233 105 q 233 78 249 67 q 264 56 296 56 q 311 56 338 62 q 364 68 375 72 l 364 28 q 321 9 278 -2 q 235 -13 199 -13 z"},"M":{"x_min":0,"x_max":1033,"ha":1033,"o":"m 1097 693 l 1088 657 q 1073 656 1051 652 q 1028 648 1017 645 q 997 639 987 625 q 978 611 974 595 l 865 110 q 863 103 862 96 q 860 88 860 83 q 860 62 878 51 q 896 41 949 36 l 941 0 l 566 0 l 575 36 q 594 38 615 41 q 635 44 646 48 q 666 55 677 68 q 688 80 692 100 l 809 620 l 804 620 l 428 11 l 366 11 q 365 30 359 73 q 354 115 349 152 l 282 628 l 277 628 l 180 204 q 174 179 170 156 q 167 133 167 115 q 167 95 171 84 q 175 73 183 66 q 193 56 221 47 q 249 38 263 36 l 254 0 l -43 0 l -35 36 q -22 37 6 42 q 35 47 56 60 q 78 74 92 105 q 106 137 121 199 l 200 541 q 204 559 205 568 q 206 577 206 586 q 206 601 202 612 q 198 624 189 632 q 174 646 154 651 q 133 656 114 657 l 122 693 l 439 693 l 505 235 l 732 607 q 748 632 760 659 q 772 686 774 693 z"},"g":{"x_min":0,"x_max":649,"ha":649,"o":"m 366 51 l 362 51 q 350 42 334 30 q 318 19 299 11 q 277 0 257 -6 q 238 -11 208 -11 q 123 -11 77 39 q 32 88 32 175 q 32 241 55 299 q 79 357 119 401 q 158 445 212 470 q 266 496 326 496 q 370 496 404 486 q 438 477 462 458 l 611 488 l 618 480 l 535 83 q 515 -5 480 -63 q 446 -121 400 -155 q 353 -190 302 -203 q 251 -217 195 -217 q 135 -217 97 -208 q 59 -199 39 -185 q 20 -171 12 -154 q 5 -137 5 -121 q 5 -93 25 -71 q 45 -49 80 -49 q 106 -49 127 -63 q 148 -77 164 -97 q 178 -115 190 -139 q 202 -163 208 -177 q 231 -173 253 -165 q 275 -156 296 -131 q 315 -108 333 -66 q 351 -25 366 51 z m 432 371 q 432 383 428 396 q 425 409 416 421 q 407 433 393 440 q 379 447 356 447 q 324 447 297 425 q 271 402 250 364 q 230 326 218 276 q 207 226 207 173 q 207 149 211 130 q 215 110 225 94 q 235 79 252 71 q 268 63 289 63 q 312 63 338 78 q 363 92 378 109 z"},"j":{"x_min":0,"x_max":365,"ha":365,"o":"m 306 395 q 306 385 305 369 q 304 353 300 333 q 279 221 270 175 q 261 129 235 29 q 222 -21 196 -64 q 169 -107 130 -143 q 90 -179 48 -198 q 6 -217 -45 -217 q -89 -217 -116 -208 q -144 -199 -159 -186 q -174 -172 -179 -155 q -185 -139 -185 -123 q -185 -94 -164 -72 q -144 -51 -110 -51 q -83 -51 -64 -65 q -45 -79 -31 -98 q -18 -117 -7 -141 q 3 -164 9 -177 q 25 -149 41 -105 q 56 -61 72 11 q 92 99 108 175 q 123 251 136 322 q 138 333 141 349 q 144 365 144 378 q 144 402 131 415 q 119 427 88 427 q 72 427 55 422 q 38 417 25 413 l 36 457 q 76 473 114 484 q 152 496 185 496 q 243 496 274 468 q 306 439 306 395 z m 362 666 q 362 629 334 603 q 306 577 267 577 q 227 577 199 603 q 170 629 170 666 q 170 703 199 729 q 227 756 267 756 q 306 756 334 729 q 362 703 362 666 z"},"i":{"x_min":0,"x_max":366,"ha":366,"o":"m 348 70 l 337 26 q 289 7 260 -3 q 231 -13 193 -13 q 135 -13 102 15 q 70 44 70 88 q 70 105 72 123 q 75 141 80 163 l 120 306 q 125 326 129 344 q 133 363 133 378 q 133 405 122 416 q 110 427 79 427 q 63 427 47 422 q 30 417 19 413 l 29 457 q 69 473 105 484 q 141 496 173 496 q 231 496 263 468 q 294 439 294 395 q 294 385 292 362 q 290 338 284 319 l 244 177 q 239 160 235 138 q 231 116 231 104 q 231 76 244 66 q 257 56 288 56 q 303 56 321 61 q 340 66 348 70 z m 358 666 q 358 629 330 603 q 302 577 263 577 q 223 577 195 603 q 167 629 167 666 q 167 703 195 729 q 223 756 263 756 q 302 756 330 729 q 358 703 358 666 z"},"y":{"x_min":0,"x_max":669,"ha":669,"o":"m 392 78 l 389 78 q 333 28 287 8 q 241 -11 185 -11 q 130 -11 100 19 q 70 49 70 92 q 70 107 72 123 q 74 138 81 167 l 118 300 q 121 313 126 337 q 130 361 130 372 q 130 400 119 410 q 108 421 77 421 q 61 421 45 416 q 28 411 17 407 l 27 451 q 67 467 103 478 q 139 490 171 490 q 229 490 261 461 q 292 432 292 389 q 292 380 291 356 q 289 333 283 313 l 247 186 q 242 169 239 149 q 236 130 236 121 q 236 97 248 84 q 260 71 286 71 q 308 71 341 88 q 374 104 401 131 l 476 481 l 630 488 l 637 480 l 552 83 q 532 -5 497 -63 q 462 -121 416 -155 q 371 -188 319 -202 q 268 -217 214 -217 q 156 -217 118 -208 q 80 -200 58 -185 q 39 -171 31 -154 q 24 -137 24 -121 q 24 -93 44 -71 q 64 -49 99 -49 q 125 -49 146 -63 q 167 -77 183 -97 q 198 -116 210 -139 q 222 -163 228 -177 q 237 -176 250 -171 q 263 -167 271 -161 q 284 -152 294 -144 q 304 -136 316 -119 q 341 -86 360 -38 q 379 11 392 78 z"},"@":{"x_min":0,"x_max":967,"ha":967,"o":"m 819 573 q 861 528 882 470 q 903 412 903 350 q 903 227 834 142 q 764 56 661 56 q 607 56 572 74 q 538 93 528 121 l 525 121 q 514 109 502 96 q 489 84 475 76 q 459 67 446 63 q 432 59 409 59 q 349 59 316 96 q 282 134 282 196 q 282 243 302 293 q 322 342 356 383 q 389 423 436 448 q 483 474 533 474 q 567 474 584 462 q 602 450 610 426 l 611 426 l 626 468 l 752 468 l 654 197 q 650 188 647 170 q 644 152 644 143 q 644 123 652 112 q 661 100 680 100 q 757 100 803 171 q 850 241 850 355 q 850 413 831 461 q 812 509 774 545 q 736 582 680 602 q 623 623 550 623 q 480 623 415 597 q 350 571 297 520 q 245 470 213 399 q 181 328 181 239 q 181 153 206 87 q 231 21 276 -22 q 321 -67 381 -89 q 442 -112 515 -112 q 599 -112 663 -90 q 728 -68 778 -29 l 797 -59 q 742 -104 672 -131 q 603 -158 512 -158 q 435 -158 358 -133 q 280 -108 221 -60 q 161 -12 124 62 q 87 136 87 233 q 87 318 120 397 q 153 476 214 538 q 274 598 363 635 q 451 672 555 672 q 646 672 712 645 q 777 618 819 573 z m 590 371 q 590 398 577 415 q 564 432 539 432 q 514 432 491 410 q 469 388 451 353 q 433 317 422 272 q 412 227 412 184 q 412 150 422 133 q 431 115 452 115 q 471 115 485 125 q 500 134 516 156 z"},".":{"x_min":0,"x_max":328,"ha":328,"o":"m 246 81 q 246 42 218 14 q 189 -14 150 -14 q 110 -14 82 14 q 53 42 53 81 q 53 120 82 149 q 110 177 150 177 q 189 177 218 148 q 246 120 246 81 z"},"p":{"x_min":0,"x_max":663,"ha":663,"o":"m 631 309 q 631 243 608 184 q 584 125 544 81 q 503 36 451 12 q 399 -13 337 -13 q 290 -13 261 -4 q 233 5 212 22 l 182 -108 q 181 -114 179 -122 q 178 -130 178 -133 q 178 -145 183 -154 q 188 -163 197 -167 q 208 -172 232 -177 q 256 -182 271 -183 l 264 -217 l -89 -217 l -81 -183 q -68 -182 -49 -179 q -30 -176 -21 -173 q -4 -168 5 -156 q 14 -145 18 -125 l 114 300 q 117 314 122 336 q 126 358 126 373 q 126 398 116 410 q 105 421 73 421 q 59 421 42 417 q 24 412 13 407 l 24 451 q 63 467 100 479 q 136 490 168 490 q 195 490 215 485 q 236 480 251 469 q 265 459 273 446 q 282 433 288 419 l 292 419 q 336 458 379 477 q 421 496 460 496 q 545 496 588 446 q 631 396 631 309 z m 414 116 q 435 159 445 206 q 456 252 456 311 q 456 334 453 355 q 449 375 440 390 q 432 405 417 413 q 402 421 379 421 q 354 421 329 405 q 304 389 292 375 l 231 107 q 231 73 251 51 q 271 29 307 29 q 337 29 365 52 q 394 76 414 116 z"},"X":{"x_min":0,"x_max":802,"ha":802,"o":"m 875 693 l 867 657 q 847 657 832 653 q 817 648 807 645 q 774 631 749 610 q 723 589 695 564 q 658 531 603 480 q 548 429 498 383 q 539 293 564 243 q 589 192 620 129 q 631 106 647 83 q 663 61 688 49 q 701 44 715 41 q 729 37 752 36 l 744 0 l 337 0 l 345 36 q 410 40 429 47 q 449 55 449 70 q 449 78 445 90 q 442 103 431 130 q 421 152 404 193 q 386 233 363 282 q 319 241 277 200 q 236 159 208 131 q 172 95 165 82 q 158 69 158 63 q 158 53 173 46 q 188 39 231 36 l 223 0 l -58 0 l -50 36 q -29 37 -19 39 q -8 42 9 48 q 41 62 66 82 q 92 101 122 129 q 170 173 221 220 q 272 267 340 331 q 309 400 285 449 q 262 497 229 563 q 217 589 201 610 q 186 631 159 643 q 146 649 134 652 q 122 655 96 657 l 104 693 l 513 693 l 504 657 q 465 655 432 648 q 400 642 400 622 q 400 614 403 603 q 406 592 416 569 q 425 544 438 516 q 451 487 476 431 q 525 478 561 513 q 596 548 618 572 q 651 608 655 616 q 659 625 659 630 q 659 635 656 639 q 653 643 644 646 q 635 650 621 653 q 607 655 585 657 l 593 693 z"},"*":{"x_min":0,"x_max":482,"ha":482,"o":"m 506 529 q 506 507 494 497 q 481 487 462 487 q 450 487 412 498 q 374 508 331 514 q 359 477 393 444 q 427 411 427 388 q 427 372 413 360 q 399 348 383 348 q 373 348 363 354 q 354 360 347 372 q 341 382 331 420 q 321 458 305 499 q 289 460 278 420 q 268 379 262 372 q 254 359 246 354 q 238 348 226 348 q 210 348 196 360 q 182 371 182 388 q 182 411 216 444 q 250 477 279 514 q 238 509 198 498 q 159 487 147 487 q 128 487 115 497 q 103 507 103 529 q 103 549 115 560 q 128 571 147 571 q 162 571 196 561 q 229 551 279 545 q 247 586 214 617 q 182 648 182 670 q 182 687 196 698 q 210 710 226 710 q 237 710 246 705 q 255 699 262 688 q 269 677 279 638 q 289 600 305 560 q 321 600 331 639 q 341 678 347 688 q 353 698 363 704 q 372 710 383 710 q 399 710 413 699 q 427 688 427 670 q 427 648 397 618 q 366 588 331 545 q 380 551 415 561 q 450 571 462 571 q 481 571 494 560 q 506 549 506 529 z"},"Y":{"x_min":0,"x_max":732,"ha":732,"o":"m 864 693 l 856 657 q 839 655 825 651 q 811 647 792 638 q 769 626 750 610 q 731 593 707 567 q 647 501 618 469 q 590 436 512 345 q 469 295 460 275 q 452 254 440 204 l 419 113 q 417 105 416 97 q 415 90 415 86 q 415 75 420 66 q 424 57 437 51 q 449 46 471 42 q 494 37 508 36 l 500 0 l 114 0 l 122 36 q 136 37 162 40 q 188 42 200 46 q 218 54 229 67 q 239 81 243 99 l 271 223 q 274 237 277 247 q 279 258 279 266 q 279 276 274 292 q 269 308 260 333 q 231 417 216 459 q 200 502 174 570 q 164 596 151 613 q 138 630 123 641 q 111 648 94 652 q 76 656 61 657 l 69 693 l 457 693 l 448 657 q 398 656 373 649 q 349 643 349 629 q 349 623 353 604 q 357 585 371 542 q 381 508 400 455 q 418 402 441 339 q 503 411 554 471 q 606 531 625 555 q 661 600 667 611 q 672 621 672 626 q 672 641 649 648 q 625 655 592 657 l 601 693 z"},"c":{"x_min":0,"x_max":536,"ha":536,"o":"m 272 -16 q 160 -16 97 40 q 34 96 34 194 q 34 253 54 306 q 74 359 116 403 q 154 444 215 470 q 275 496 350 496 q 437 496 482 464 q 528 432 528 376 q 528 361 523 343 q 518 324 508 312 q 496 296 482 288 q 467 279 438 279 q 400 279 379 298 q 358 317 358 337 q 358 362 368 386 q 378 410 394 436 q 390 441 376 449 q 363 457 341 457 q 284 457 247 388 q 209 319 209 217 q 209 139 238 99 q 266 59 319 59 q 373 59 408 80 q 444 101 482 151 l 517 121 q 477 59 411 21 q 345 -16 272 -16 z"},"!":{"x_min":0,"x_max":376,"ha":376,"o":"m 340 540 q 319 496 282 413 q 245 330 205 226 l 167 226 q 173 350 173 427 q 173 503 173 538 q 173 566 174 583 q 175 600 179 617 q 189 662 222 684 q 255 707 293 707 q 327 707 348 687 q 370 667 370 637 q 370 621 364 598 q 357 576 340 540 z m 249 76 q 249 39 220 12 q 192 -14 155 -14 q 117 -14 89 12 q 61 39 61 76 q 61 113 89 140 q 117 167 155 167 q 192 167 220 140 q 249 113 249 76 z"},"/":{"x_min":0,"x_max":472,"ha":472,"o":"m 521 744 l 17 -207 l -73 -207 l 431 744 z"},"[":{"x_min":0,"x_max":447,"ha":447,"o":"m 318 -151 l -5 -151 l 201 742 l 524 742 l 513 695 l 344 695 l 159 -104 l 329 -104 z"},"6":{"x_min":0,"x_max":648,"ha":648,"o":"m 291 -17 q 181 -17 116 45 q 51 107 51 209 q 51 405 197 545 q 344 685 584 712 l 586 664 l 533 655 q 472 639 426 610 q 380 581 349 546 q 317 512 296 470 q 275 428 258 382 q 291 409 336 428 q 382 446 445 446 q 518 446 568 397 q 617 349 617 271 q 617 154 523 68 q 428 -17 291 -17 z m 436 269 q 436 320 412 350 q 389 379 353 379 q 324 379 298 368 q 272 357 244 325 q 240 310 231 266 q 223 223 223 160 q 223 96 244 60 q 265 23 300 23 q 355 23 395 95 q 436 167 436 269 z"},"r":{"x_min":0,"x_max":534,"ha":534,"o":"m 540 394 q 540 372 534 352 q 527 331 515 316 q 500 300 485 292 q 469 284 441 284 q 404 284 383 302 q 362 320 362 342 q 362 363 368 378 q 375 394 388 424 q 355 411 332 391 q 308 371 287 346 l 209 0 l 48 0 l 115 300 q 118 314 123 336 q 127 358 127 373 q 127 401 116 411 q 105 421 74 421 q 59 421 42 417 q 26 412 14 407 l 25 451 q 64 467 101 479 q 137 490 169 490 q 227 490 255 468 q 284 445 293 404 l 296 404 q 345 455 378 475 q 412 496 451 496 q 492 496 516 469 q 540 443 540 394 z"},"2":{"x_min":0,"x_max":626,"ha":626,"o":"m 169 495 q 201 516 249 529 q 297 542 354 542 q 466 542 531 503 q 597 465 597 389 q 597 342 576 310 q 556 278 513 255 q 475 235 419 219 q 363 203 288 188 q 246 179 209 167 q 171 154 140 140 l 138 132 l 552 132 l 521 0 l -8 0 l 14 98 q 32 111 54 125 q 76 140 99 153 q 130 171 163 187 q 196 202 221 213 q 284 241 318 260 q 352 278 373 299 q 396 324 405 350 q 414 375 414 405 q 414 450 390 473 q 366 496 325 496 q 297 496 279 490 q 261 485 247 479 q 253 460 261 438 q 268 415 268 390 q 268 355 244 332 q 220 310 182 310 q 145 310 123 333 q 102 357 102 392 q 102 418 119 446 q 136 473 169 495 z"},"{":{"x_min":0,"x_max":500,"ha":500,"o":"m 379 -163 q 326 -163 274 -157 q 223 -152 191 -139 q 158 -125 139 -97 q 121 -70 121 -25 q 121 -14 122 -2 q 124 9 125 23 q 129 47 139 84 q 149 121 153 147 q 155 159 156 168 q 157 176 157 185 q 157 222 133 239 q 109 257 35 262 l 52 335 q 85 338 118 343 q 151 349 173 360 q 196 372 213 393 q 229 415 235 451 q 240 479 242 507 q 245 534 250 565 q 259 625 286 661 q 313 697 355 718 q 397 738 453 744 q 509 750 571 750 l 564 710 q 537 708 517 705 q 498 702 475 689 q 454 678 441 657 q 427 637 419 596 l 403 503 q 393 451 371 417 q 348 383 316 362 q 285 342 248 330 q 211 319 175 312 l 166 275 q 238 260 270 226 q 302 192 302 137 q 302 126 301 112 q 300 98 297 84 l 277 -8 q 276 -15 275 -23 q 275 -31 275 -38 q 275 -65 285 -81 q 295 -97 311 -106 q 326 -114 348 -118 q 369 -121 387 -122 z"},"9":{"x_min":0,"x_max":648,"ha":648,"o":"m 622 313 q 622 117 477 -17 q 332 -151 87 -183 l 84 -135 l 138 -126 q 201 -109 246 -82 q 292 -55 324 -20 q 356 15 379 58 q 402 101 417 143 q 369 106 325 92 q 281 78 229 78 q 155 78 105 130 q 56 182 56 261 q 56 375 150 458 q 245 542 381 542 q 491 542 557 479 q 622 417 622 313 z m 451 364 q 451 428 429 464 q 408 500 375 500 q 320 500 279 431 q 238 362 238 260 q 238 208 260 176 q 282 144 318 144 q 346 144 375 156 q 404 168 430 198 q 433 214 442 255 q 451 296 451 364 z"}," ":{"x_min":0,"x_max":254,"ha":254,"o":""},"I":{"x_min":0,"x_max":451,"ha":451,"o":"m -30 0 l -21 36 q -7 36 17 39 q 42 42 55 46 q 74 52 84 65 q 94 78 98 95 l 209 580 q 212 590 213 597 q 214 604 214 607 q 214 627 191 639 q 168 650 122 657 l 130 693 l 514 693 l 506 657 q 490 656 466 653 q 441 649 429 645 q 409 639 400 625 q 390 612 386 595 l 274 110 q 272 102 271 95 q 270 87 270 83 q 270 59 293 50 q 315 40 363 36 l 354 0 z"},"H":{"x_min":0,"x_max":913,"ha":913,"o":"m 974 693 l 965 657 q 950 656 927 652 q 904 648 893 645 q 873 639 863 625 q 854 612 850 595 l 738 110 q 736 102 735 95 q 733 87 733 83 q 733 62 752 51 q 771 41 822 36 l 814 0 l 439 0 l 448 36 q 460 37 484 39 q 507 41 518 44 q 537 51 547 64 q 557 77 561 94 l 616 337 l 325 337 l 273 110 q 271 102 270 95 q 269 87 269 83 q 269 62 287 51 q 305 41 356 36 l 348 0 l -27 0 l -19 36 q -6 36 18 39 q 42 42 54 45 q 73 52 83 65 q 93 78 97 95 l 208 580 q 211 590 212 597 q 213 604 213 607 q 213 627 192 639 q 171 650 125 657 l 133 693 l 507 693 l 499 657 q 484 656 462 652 q 440 648 428 645 q 408 639 398 625 q 389 611 385 595 l 337 385 l 628 385 l 673 580 q 675 590 676 597 q 677 604 677 607 q 677 627 657 638 q 637 649 591 657 l 599 693 z"},"4":{"x_min":0,"x_max":649,"ha":649,"o":"m 584 5 l 476 5 l 433 -180 l 272 -180 l 315 5 l -11 5 l 11 100 l 459 539 l 599 539 l 499 106 l 607 106 z m 338 106 l 412 420 l 91 106 z"},"~":{"x_min":0,"x_max":703,"ha":703,"o":"m 643 359 q 633 332 617 304 q 601 275 581 253 q 556 226 527 210 q 498 193 465 193 q 428 193 397 206 q 367 219 338 236 q 316 249 287 264 q 257 279 234 279 q 202 279 178 256 q 154 232 132 182 l 82 202 q 89 224 105 252 q 121 281 144 308 q 166 333 196 350 q 226 368 260 368 q 300 368 331 354 q 362 340 387 325 q 413 309 438 296 q 463 282 490 282 q 524 282 548 308 q 572 333 592 379 z"},"D":{"x_min":0,"x_max":834,"ha":834,"o":"m 707 637 q 761 603 792 549 q 823 494 823 420 q 823 327 786 249 q 750 170 683 115 q 616 59 528 30 q 440 0 334 0 l -27 0 l -19 36 q -6 36 18 39 q 42 42 54 45 q 73 52 83 65 q 93 78 97 95 l 208 580 q 211 590 212 597 q 213 604 213 607 q 213 627 192 639 q 171 650 125 657 l 133 693 l 488 693 q 542 693 600 680 q 658 667 707 637 z m 562 170 q 597 229 614 299 q 630 369 630 444 q 630 539 587 595 q 544 651 458 651 q 441 651 424 650 q 407 649 397 649 l 278 129 q 276 122 274 111 q 273 101 273 96 q 273 65 296 54 q 318 42 359 42 q 426 42 477 77 q 529 112 562 170 z"},"^":{"x_min":0,"x_max":703,"ha":703,"o":"m 621 371 l 525 371 l 371 622 l 216 371 l 121 371 l 337 711 l 405 711 z"},"0":{"x_min":0,"x_max":701,"ha":701,"o":"m 613 475 q 644 446 659 407 q 674 369 674 325 q 674 252 644 188 q 614 124 564 80 q 512 34 446 9 q 380 -17 303 -17 q 240 -17 192 1 q 144 18 113 47 q 82 76 65 114 q 49 153 49 198 q 49 266 74 326 q 99 386 148 436 q 196 483 266 512 q 335 542 420 542 q 486 542 534 523 q 583 505 613 475 z m 447 140 q 472 192 485 253 q 498 314 498 380 q 498 408 493 429 q 488 449 478 466 q 467 482 451 491 q 435 501 412 501 q 373 501 338 472 q 304 443 274 379 q 250 328 238 267 q 226 206 226 146 q 226 116 230 96 q 234 77 245 59 q 255 43 271 33 q 288 23 312 23 q 353 23 388 55 q 423 87 447 140 z"},"F":{"x_min":0,"x_max":671,"ha":671,"o":"m 756 693 l 713 508 l 675 508 q 670 554 644 598 q 618 643 589 646 q 574 648 551 650 q 527 651 506 651 l 398 651 l 334 375 l 403 375 q 430 375 454 382 q 478 389 500 407 q 515 419 533 448 q 551 476 558 497 l 595 497 l 528 206 l 491 206 l 491 221 q 491 246 486 269 q 481 292 475 301 q 463 318 444 326 q 425 333 394 333 l 325 333 l 273 110 q 271 102 270 95 q 269 87 269 83 q 269 62 287 51 q 305 41 356 36 l 348 0 l -27 0 l -19 36 q -6 36 18 39 q 42 42 54 46 q 73 53 83 65 q 93 78 97 95 l 208 580 q 211 590 212 597 q 213 604 213 607 q 213 627 192 639 q 171 650 125 657 l 133 693 z"},"`":{"x_min":0,"x_max":500,"ha":500,"o":"m 418 556 l 396 538 q 332 581 285 608 q 238 635 219 649 q 202 662 193 673 q 185 685 185 703 q 185 720 200 738 q 216 756 241 756 q 271 756 290 744 q 308 732 326 705 q 340 684 364 644 q 387 604 418 556 z"},"k":{"x_min":0,"x_max":641,"ha":641,"o":"m 633 419 q 633 384 608 357 q 583 331 546 331 q 515 331 489 344 q 462 358 442 374 q 433 367 423 361 q 414 355 385 330 q 407 273 434 205 q 461 137 475 111 q 491 81 505 68 q 520 55 556 55 q 568 55 587 60 q 606 65 619 70 l 608 26 q 560 5 523 -4 q 487 -13 459 -13 q 445 -13 425 -11 q 404 -9 389 -2 q 370 6 354 22 q 338 38 323 72 q 301 120 292 146 q 283 171 267 215 l 235 185 l 193 0 l 31 0 l 175 622 q 177 630 178 637 q 179 645 179 649 q 179 667 173 677 q 167 688 155 694 q 144 700 128 703 q 113 705 93 707 l 102 743 l 359 756 l 365 748 l 248 240 l 251 240 q 310 306 344 341 q 378 376 417 415 q 465 461 494 478 q 522 496 557 496 q 592 496 613 476 q 633 457 633 419 z"},"u":{"x_min":0,"x_max":685,"ha":685,"o":"m 392 78 l 389 78 q 337 31 291 8 q 245 -14 184 -14 q 129 -14 100 16 q 70 45 70 88 q 70 103 72 119 q 74 134 81 163 l 118 300 q 121 313 126 337 q 130 361 130 372 q 130 399 119 410 q 108 421 77 421 q 61 421 45 416 q 28 411 17 407 l 27 451 q 67 467 103 478 q 139 490 171 490 q 229 490 261 461 q 292 432 292 389 q 292 380 291 356 q 289 333 283 313 l 247 183 q 242 166 239 146 q 236 126 236 118 q 236 95 247 81 q 258 68 284 68 q 303 68 335 84 q 366 100 397 129 l 478 481 l 633 488 l 639 481 l 570 181 q 566 167 562 144 q 557 120 557 109 q 557 81 570 70 q 582 60 613 60 q 628 60 646 65 q 665 70 673 74 l 663 30 q 614 11 585 1 q 557 -9 519 -9 q 465 -9 433 15 q 400 40 392 78 z"},"]":{"x_min":0,"x_max":447,"ha":447,"o":"m 262 -151 l -61 -151 l -50 -104 l 119 -104 l 304 695 l 134 695 l 145 742 l 468 742 z"},"U":{"x_min":0,"x_max":833,"ha":833,"o":"m 369 -19 q 242 -19 174 30 q 106 79 106 168 q 106 184 108 200 q 110 216 114 234 l 194 581 q 197 591 198 597 q 199 603 199 607 q 199 627 179 639 q 160 650 111 657 l 120 693 l 491 693 l 482 657 q 466 656 447 653 q 428 650 415 646 q 395 640 386 627 q 376 613 373 596 l 293 255 q 289 234 286 210 q 283 187 283 170 q 283 107 319 77 q 355 47 424 47 q 508 47 570 103 q 631 159 652 251 l 707 489 q 713 519 717 541 q 720 562 720 577 q 720 595 716 607 q 711 620 704 627 q 691 638 663 647 q 635 655 623 657 l 631 693 l 931 693 l 923 657 q 908 656 881 651 q 853 646 832 633 q 810 621 795 588 q 780 556 766 494 l 706 233 q 677 112 587 47 q 496 -19 369 -19 z"},"o":{"x_min":0,"x_max":636,"ha":636,"o":"m 603 292 q 603 231 580 175 q 556 119 513 77 q 467 33 405 9 q 342 -16 265 -16 q 161 -16 97 40 q 33 95 33 191 q 33 256 57 312 q 81 367 125 409 q 167 449 230 473 q 292 497 365 497 q 476 497 539 443 q 603 389 603 292 z m 431 348 q 431 405 412 432 q 393 458 356 458 q 318 458 287 428 q 256 398 236 340 q 219 292 212 236 q 205 179 205 135 q 205 76 224 49 q 244 22 281 22 q 321 22 350 55 q 379 88 396 136 q 414 183 422 240 q 431 296 431 348 z"},"N":{"x_min":0,"x_max":830,"ha":830,"o":"m 919 693 l 911 657 q 897 656 871 652 q 845 648 820 633 q 799 620 784 587 q 770 555 755 493 l 640 -4 l 558 -4 l 259 551 l 180 205 q 173 177 170 153 q 167 129 167 115 q 167 95 170 84 q 174 73 182 66 q 193 55 221 46 q 249 38 263 36 l 254 0 l -43 0 l -35 36 q -22 38 7 42 q 35 47 56 60 q 77 74 92 105 q 106 136 121 199 l 196 525 q 198 537 200 547 q 202 557 202 565 q 202 580 198 593 q 195 606 186 618 q 172 634 152 643 q 132 652 105 657 l 114 693 l 370 693 l 631 205 l 696 488 q 703 520 706 539 q 709 559 709 576 q 709 595 705 607 q 701 619 693 627 q 683 638 656 646 q 628 655 614 657 l 622 693 z"},"+":{"x_min":0,"x_max":703,"ha":703,"o":"m 623 241 l 392 241 l 392 10 l 311 10 l 311 241 l 80 241 l 80 320 l 311 320 l 311 551 l 392 551 l 392 320 l 623 320 z"},"G":{"x_min":0,"x_max":807,"ha":807,"o":"m 354 -19 q 288 -19 231 0 q 174 19 132 55 q 90 92 66 145 q 42 197 42 263 q 42 361 77 443 q 111 524 173 585 q 233 645 318 678 q 402 711 500 711 q 559 711 617 697 q 675 683 705 666 l 741 693 l 783 693 l 729 440 l 687 440 q 676 553 626 610 q 577 667 498 667 q 436 667 387 629 q 338 592 304 533 q 271 476 253 396 q 234 316 234 238 q 234 142 272 85 q 310 28 384 28 q 424 28 453 41 q 482 54 505 73 l 536 206 q 538 214 539 222 q 540 229 540 234 q 540 254 515 266 q 489 277 442 284 l 451 320 l 826 320 l 817 284 q 802 283 782 279 q 762 275 750 272 q 729 266 720 252 q 711 239 707 223 l 688 138 q 683 117 679 99 q 676 82 673 62 q 617 30 524 5 q 432 -19 354 -19 z"},"q":{"x_min":0,"x_max":650,"ha":650,"o":"m 357 48 l 354 48 q 344 41 327 29 q 309 16 293 8 q 274 -1 251 -8 q 229 -15 203 -15 q 118 -15 75 35 q 32 85 32 172 q 32 239 55 297 q 79 356 119 400 q 158 444 212 470 q 267 496 326 496 q 373 496 405 487 q 437 478 461 458 l 611 488 l 618 480 l 482 -108 q 481 -114 479 -122 q 478 -130 478 -133 q 478 -145 483 -154 q 488 -163 498 -167 q 508 -172 531 -177 q 554 -182 569 -183 l 562 -217 l 209 -217 l 217 -183 q 229 -182 250 -179 q 270 -176 279 -173 q 296 -167 305 -156 q 314 -145 318 -125 z m 431 371 q 431 383 428 396 q 425 409 416 421 q 406 433 393 440 q 379 447 355 447 q 323 447 296 424 q 270 401 249 362 q 229 324 218 272 q 207 221 207 170 q 207 146 210 125 q 214 105 222 91 q 231 76 246 67 q 261 59 283 59 q 308 59 332 74 q 356 89 370 105 z"},"d":{"x_min":0,"x_max":663,"ha":663,"o":"m 374 61 l 370 61 q 353 46 337 34 q 322 22 297 10 q 274 -2 253 -9 q 231 -15 203 -15 q 118 -15 75 35 q 32 85 32 172 q 32 239 55 297 q 79 356 119 400 q 158 444 212 470 q 267 496 326 496 q 371 496 401 486 q 432 477 452 461 l 488 620 q 489 626 490 635 q 492 643 492 647 q 492 664 483 675 q 475 686 460 692 q 447 699 429 702 q 412 705 391 707 l 399 743 l 673 756 l 679 748 l 547 180 q 544 166 539 143 q 535 120 535 108 q 535 80 547 70 q 560 59 591 59 q 604 59 624 64 q 643 70 651 73 l 640 29 q 592 10 563 0 q 534 -10 496 -10 q 446 -10 416 10 q 386 30 374 61 z m 432 374 q 432 386 428 399 q 425 412 416 423 q 407 436 393 443 q 379 450 356 450 q 325 450 298 427 q 271 403 250 363 q 230 326 218 275 q 207 224 207 170 q 207 146 210 125 q 214 105 222 91 q 231 76 246 67 q 261 59 283 59 q 306 59 329 73 q 352 86 370 105 z"},"1":{"x_min":0,"x_max":490,"ha":490,"o":"m 401 0 l -1 0 l 6 35 q 21 36 54 40 q 87 44 100 48 q 114 52 126 64 q 138 77 142 97 l 215 410 l 91 410 l 102 455 l 115 455 q 158 455 193 464 q 229 473 254 486 q 281 500 300 515 q 320 530 329 541 l 415 541 q 405 504 395 465 q 384 427 376 390 l 311 111 q 310 105 308 97 q 307 89 307 84 q 307 73 312 65 q 317 57 327 52 q 337 46 366 41 q 394 36 409 35 z"},"5":{"x_min":0,"x_max":599,"ha":599,"o":"m 210 -180 q 114 -180 48 -138 q -19 -95 -19 -37 q -19 -2 4 22 q 26 46 63 46 q 102 46 125 24 q 149 2 149 -32 q 149 -57 141 -84 q 132 -111 127 -126 q 135 -129 155 -132 q 174 -135 193 -135 q 218 -135 248 -119 q 277 -104 301 -74 q 327 -42 342 -1 q 358 39 358 98 q 358 153 330 185 q 302 218 251 218 q 227 218 207 211 q 188 205 170 195 q 151 184 138 174 q 125 164 110 148 l 74 162 l 199 526 l 612 526 l 581 392 l 208 392 l 155 227 q 200 254 238 265 q 275 277 320 277 q 359 277 396 269 q 433 261 467 238 q 500 216 520 182 q 540 148 540 100 q 540 -18 443 -99 q 346 -180 210 -180 z"}}}
